<?xml version="1.0" encoding="utf-8"?>
<svg version="1.1" xmlns:xlink="http://www.w3.org/1999/xlink" width="35px" height="33px" xmlns="http://www.w3.org/2000/svg">
  <g transform="matrix(1 0 0 1 -659 -735 )">
    <path d="M 33.5 26.2857142857143  L 33.5 5.71428571428571  C 33.6909090909091 2.19428571428573  32.9504646464647 0.571428571428571  31.0464646464647 0.571428571428571  L 0 0.571428571428571  L 0 31.5  L 31.0464646464647 31.5  C 32.9504646464647 31.4285714285714  33.6909090909091 29.8057142857143  33.5 26.2857142857143  Z " fill-rule="nonzero" fill="#ebebeb" stroke="none" transform="matrix(1 0 0 1 659 735 )" />
    <path d="M 0 31.5  L 31.0464646464647 31.5  C 32.9504646464647 31.4285714285714  33.6909090909091 29.8057142857143  33.5 26.2857142857143  L 33.5 5.71428571428571  C 33.6909090909091 2.19428571428573  32.9504646464647 0.571428571428571  31.0464646464647 0.571428571428571  L 0 0.571428571428571  " stroke-width="1" stroke="#d9d9d9" fill="none" transform="matrix(1 0 0 1 659 735 )" />
  </g>
</svg>